<?xml version="1.0" standalone="no"?>
<!DOCTYPE svg PUBLIC "-//W3C//DTD SVG 1.1//EN" "http://www.w3.org/Graphics/SVG/1.1/DTD/svg11.dtd" >
<svg xmlns="http://www.w3.org/2000/svg" xmlns:xlink="http://www.w3.org/1999/xlink" version="1.1">
<metadata></metadata>
<defs>
<font id="missguided_lightlight" horiz-adv-x="1134" >
<font-face units-per-em="2048" ascent="1638" descent="-410" />
<missing-glyph horiz-adv-x="568" />
<glyph horiz-adv-x="0" />
<glyph horiz-adv-x="0" />
<glyph unicode="&#xd;" horiz-adv-x="0" />
<glyph unicode=" "  horiz-adv-x="568" />
<glyph unicode="&#x09;" horiz-adv-x="568" />
<glyph unicode="&#xa0;" horiz-adv-x="568" />
<glyph unicode="!" horiz-adv-x="604" d="M378 0v258h-150v-258h150zM378 404v1110h-150v-278v-832h150z" />
<glyph unicode="&#x22;" horiz-adv-x="632" d="M486 1050v464h-104v-464h104zM254 1050v464h-102v-464h102z" />
<glyph unicode="#" d="M1124 928v124h-202q20 116 84 462h-138q-20 -116 -82 -462h-334q22 116 84 462h-130q-22 -116 -86 -462h-276v-124h252q-14 -80 -58 -318h-228v-20v-104h202q-22 -122 -92 -486h134q22 122 92 486h336q-22 -122 -88 -486h136q22 122 88 486h276v124h-252q14 80 58 318 h224zM764 928q-14 -80 -60 -318h-334q16 80 60 318h334z" />
<glyph unicode="$" d="M980 462q0 84 -28 156q-28 74 -84 126q-42 40 -96 70q-56 28 -166 62q-146 46 -198 96t-52 146q0 112 64 178q62 66 168 66t172 -64t66 -178h142q0 152 -90 250t-242 120v168h-134v-168q-136 -26 -218 -124q-80 -98 -80 -236q0 -66 22 -128q20 -62 58 -110q40 -50 98 -82 q56 -32 170 -66q78 -24 120 -42q40 -20 72 -44q40 -36 64 -86q22 -52 22 -114q0 -120 -74 -196q-76 -78 -188 -78q-122 0 -198 76q-76 74 -76 206h-140q0 -164 86 -270q86 -104 262 -136v-174h134v174q152 16 248 128q96 114 96 274z" />
<glyph unicode="%" horiz-adv-x="1588" d="M1204 1514h-152q-170 -378 -680 -1514h148q172 378 684 1514zM1540 334q0 146 -106 252q-104 106 -250 106q-152 0 -258 -104q-104 -106 -104 -256q0 -148 104 -254q106 -104 254 -104t254 106q106 104 106 254zM1400 332q0 -92 -64 -158q-66 -66 -156 -66t-156 66 t-66 158q0 96 66 160q64 66 158 66q90 0 154 -68q64 -66 64 -158zM746 1174q0 146 -106 254q-104 106 -250 106q-152 0 -258 -106q-106 -104 -106 -254t106 -256q106 -104 254 -104t254 104q106 106 106 256zM606 1174q0 -94 -66 -160q-64 -66 -154 -66q-94 0 -158 66 q-66 68 -66 160q0 94 66 158q66 66 160 66q90 0 154 -66t64 -158z" />
<glyph unicode="&#x26;" horiz-adv-x="1550" d="M1506 78q-96 94 -384 372q70 134 278 536h-168q-54 -108 -220 -426q-72 70 -288 282q172 88 234 158q62 72 62 194q0 148 -104 248q-104 98 -260 98q-150 0 -254 -98q-106 -96 -106 -238q0 -78 38 -148q36 -70 130 -170q-178 -92 -262 -194q-86 -104 -86 -256 q0 -192 136 -328q134 -134 342 -134q150 0 258 80q110 82 198 260q118 -114 350 -340q26 26 106 104zM938 422q-82 -170 -164 -240q-82 -72 -190 -72q-132 0 -226 90q-92 90 -92 220q0 114 70 196q70 80 238 162q120 -118 364 -356zM876 1206q0 -80 -62 -142t-200 -114 q-88 82 -128 140q-38 60 -38 118q0 82 62 138q60 56 150 56q92 0 154 -56t62 -140z" />
<glyph unicode="'" horiz-adv-x="406" d="M254 1050v464h-102v-464h102z" />
<glyph unicode="(" horiz-adv-x="756" d="M686 -256v134q-208 128 -314 334q-104 206 -104 420q0 206 106 416q106 212 312 336v130q-172 -60 -298 -196t-194 -306q-38 -90 -58 -188q-20 -96 -20 -192q0 -98 22 -196q22 -100 60 -192q74 -172 202 -306q126 -136 286 -194z" />
<glyph unicode=")" horiz-adv-x="756" d="M638 624q0 98 -20 198q-22 98 -62 192q-72 172 -200 308q-128 134 -286 192v-134q206 -124 312 -332q106 -210 106 -422q0 -200 -106 -416q-104 -214 -312 -334v-34v-98q172 58 298 196q126 136 194 306q38 92 58 188q18 96 18 190z" />
<glyph unicode="*" horiz-adv-x="870" d="M738 1194v100h-212q30 48 118 188q-24 16 -98 58q-26 -46 -106 -184q-26 46 -108 184q-26 -14 -100 -58q28 -46 114 -188h-214v-100h214q-30 -44 -116 -178q24 -14 98 -58q26 48 108 186q28 -46 108 -186q24 14 98 56q-30 44 -114 180h210z" />
<glyph unicode="+" horiz-adv-x="1242" d="M1112 436v152h-416v416h-152v-416h-414v-152h414v-416h152v416h416z" />
<glyph unicode="," horiz-adv-x="568" d="M518 258h-152q-44 -98 -180 -396h152q44 100 180 396z" />
<glyph unicode="-" horiz-adv-x="680" d="M618 478v128h-554v-32v-96h554z" />
<glyph unicode="." horiz-adv-x="568" d="M358 0v258h-152v-258h152z" />
<glyph unicode="/" horiz-adv-x="894" d="M814 1514h-144q-148 -444 -588 -1776h138q148 444 594 1776z" />
<glyph unicode="0" d="M1076 550v430q0 292 -144 426q-142 134 -364 134q-232 0 -370 -138q-136 -136 -136 -422v-106v-324q0 -300 140 -438t378 -138q232 0 364 134q132 136 132 442zM926 576q0 -252 -86 -358q-86 -108 -266 -108q-164 0 -264 100t-100 366v370q0 254 96 356q94 100 264 100 q206 0 282 -126q74 -128 74 -330v-370z" />
<glyph unicode="1" d="M724 0v1514h-406v-138h258v-1376h148z" />
<glyph unicode="2" d="M1036 1080q0 198 -134 330q-136 130 -342 130q-220 0 -350 -138q-130 -136 -130 -378h150q0 186 88 282q90 96 240 96q142 0 234 -88q92 -90 92 -226q0 -126 -82 -224t-204 -214q-176 -172 -530 -512v-138h960v138h-756q122 116 486 464q160 152 218 254q60 102 60 224z " />
<glyph unicode="3" d="M1032 458q0 138 -64 240q-64 104 -192 168q80 56 118 126q38 72 38 166q0 168 -106 276q-108 106 -276 106q-170 0 -276 -108q-106 -110 -106 -296h150q0 126 60 196q62 70 172 70q102 0 166 -66t64 -172q0 -108 -70 -174q-70 -64 -188 -64h-14t-24 2q-12 0 -36 2v-136 q76 0 110 -4q36 -2 66 -8q114 -26 186 -120q70 -94 70 -212q0 -144 -94 -242t-234 -98q-132 0 -234 86q-100 86 -100 278h-150q0 -232 142 -366t348 -134q198 0 336 140t138 344z" />
<glyph unicode="4" d="M1080 276v138h-140v1100h-178q-184 -276 -738 -1100v-36v-102h766v-276h150v276h140zM790 414h-592q148 222 592 890v-890z" />
<glyph unicode="5" d="M1082 504q0 78 -20 148t-54 130q-66 112 -178 180t-250 68q-68 0 -130 -16q-62 -18 -130 -56q24 140 74 418h560v138h-682q-34 -186 -134 -746q28 -12 116 -46q70 86 146 128q78 42 168 42q152 0 258 -110q104 -112 104 -278t-106 -280q-104 -114 -256 -114 q-144 0 -246 102t-122 264h-146q34 -238 174 -370t346 -132q74 0 142 20t126 58q108 70 174 188t66 264z" />
<glyph unicode="6" d="M1084 510q0 76 -20 146q-18 70 -52 130q-64 110 -172 178q-108 66 -238 66q-48 0 -88 -10t-90 -32q118 174 356 526h-174q-94 -140 -374 -558q-110 -160 -146 -254q-34 -92 -34 -202q0 -226 148 -376q150 -150 374 -150q220 0 366 152q144 152 144 384zM932 504 q0 -170 -102 -282t-256 -112q-160 0 -266 114q-106 112 -106 284q0 162 106 274q106 110 262 110q158 0 260 -110t102 -278z" />
<glyph unicode="7" d="M1004 1376v138h-872v-138h716q-156 -344 -622 -1376h160q154 344 618 1376z" />
<glyph unicode="8" d="M1048 446q0 140 -66 242q-68 102 -194 158q92 42 136 116t44 186q0 172 -112 282q-114 110 -286 110t-288 -112t-116 -280q0 -100 42 -174q42 -72 134 -128q-124 -60 -190 -164t-66 -242q0 -200 140 -332q138 -134 348 -134q206 0 340 134q134 132 134 338zM898 442 q0 -144 -92 -238t-234 -94q-148 0 -242 94q-92 92 -92 238q0 144 92 234q94 92 240 92q142 0 234 -92q94 -90 94 -234zM818 1158q0 -106 -70 -178q-70 -70 -172 -70q-112 0 -186 70q-72 72 -72 182q0 106 70 174q70 66 180 66q108 0 178 -68q72 -70 72 -176z" />
<glyph unicode="9" d="M1084 1014q0 226 -150 376q-148 150 -372 150q-222 0 -366 -152t-144 -384q0 -76 18 -146t52 -130q64 -110 172 -178q108 -66 238 -66q48 0 88 10t90 32q-118 -176 -356 -526h174q94 140 376 558q106 158 144 252q36 92 36 204zM932 1006q0 -164 -106 -274 q-106 -112 -260 -112q-158 0 -262 110q-102 110 -102 280q0 172 102 282t258 110q158 0 264 -112t106 -284z" />
<glyph unicode=":" horiz-adv-x="568" d="M358 0v258h-152v-258h152zM358 780v258h-152v-258h152z" />
<glyph unicode=";" horiz-adv-x="568" d="M416 258h-152q-44 -98 -180 -396h152q44 100 180 396zM408 780v258h-152v-258h152z" />
<glyph unicode="&#x3c;" horiz-adv-x="1242" d="M984 -194v196q-152 128 -608 510q152 128 608 510v196l-776 -648v-116z" />
<glyph unicode="=" horiz-adv-x="1242" d="M1112 624v152h-982v-152h982zM1112 248v152h-982v-152h982z" />
<glyph unicode="&#x3e;" horiz-adv-x="1242" d="M984 454v116l-776 648v-196q152 -128 608 -510q-152 -128 -608 -510v-196z" />
<glyph unicode="?" horiz-adv-x="1210" d="M686 0v258h-152v-258h152zM1076 1096q0 194 -132 318q-130 126 -332 126t-340 -126t-138 -374h142q0 186 94 274t242 88q136 0 224 -84q88 -86 88 -218q0 -76 -34 -132q-34 -58 -138 -154q-118 -110 -164 -202q-48 -90 -50 -216h144q2 98 48 174q48 76 160 178 q102 90 144 170t42 178z" />
<glyph unicode="@" horiz-adv-x="1776" d="M1632 886q0 180 -92 326q-92 148 -242 232q-82 46 -176 72q-94 24 -194 24q-114 0 -220 -30q-104 -32 -194 -88q-166 -104 -268 -282q-100 -176 -100 -388q0 -114 30 -218q30 -106 84 -194q104 -166 278 -266t386 -100q166 0 318 64t246 178q-26 22 -82 66 q-96 -100 -218 -154q-120 -52 -260 -52q-184 0 -336 88t-240 232q-48 78 -74 168q-26 92 -26 190t26 190q28 90 76 168q88 146 240 234q152 90 332 90q168 0 302 -70q136 -70 214 -186q42 -62 64 -136q24 -74 24 -156q0 -106 -50 -220t-126 -190q-40 -40 -84 -64 q-44 -22 -88 -22q-32 0 -50 16q-20 16 -20 40t6 44q4 20 36 114q62 190 190 570h-126q-8 -26 -34 -102q-38 80 -96 110q-60 30 -140 30q-66 0 -130 -26q-66 -26 -124 -72q-106 -86 -176 -226q-70 -138 -70 -292q0 -134 80 -218q78 -86 204 -86q72 0 128 26q58 24 114 82 q26 -64 68 -90q40 -28 114 -28q124 0 230 88q108 88 172 218q36 68 54 144q20 78 20 152zM1106 940q0 -58 -34 -162q-32 -102 -76 -182q-54 -96 -110 -138q-58 -44 -126 -44q-74 0 -118 52q-46 52 -46 136q0 124 50 236q50 114 128 184q42 38 88 60t92 22q70 0 110 -44 q42 -44 42 -120z" />
<glyph unicode="A" horiz-adv-x="1516" d="M1492 0q-162 378 -650 1514h-170q-162 -378 -650 -1514h160q56 128 222 510h704q54 -128 220 -510h164zM1048 648h-588q76 172 298 694q72 -174 290 -694z" />
<glyph unicode="B" horiz-adv-x="1176" d="M1114 434q0 138 -60 228q-62 92 -194 144q88 50 128 126t40 188q0 196 -120 294q-122 100 -398 100h-354v-380v-1134h374q316 0 450 104q134 106 134 330zM960 426q0 -164 -106 -226q-108 -62 -340 -62h-206v586h180q130 0 236 -12q106 -14 168 -76q32 -34 50 -84 q18 -52 18 -126zM874 1118q0 -142 -84 -200q-84 -56 -298 -56h-184v514h182q228 0 306 -60t78 -198z" />
<glyph unicode="C" horiz-adv-x="1666" d="M1576 398h-166q-120 -152 -242 -218q-120 -68 -286 -68q-92 0 -176 26q-86 26 -158 72q-136 86 -220 230q-84 146 -84 318q0 96 24 182t70 160q82 138 224 220q142 80 318 80q160 0 292 -64t228 -216h170q-86 196 -274 308q-186 112 -422 112q-118 0 -224 -30t-196 -84 q-168 -102 -266 -278t-98 -396q0 -216 100 -390q102 -174 270 -276q92 -54 198 -84q108 -28 226 -28q232 0 406 106t286 318z" />
<glyph unicode="D" horiz-adv-x="1524" d="M1434 752q0 214 -88 378t-256 264q-108 66 -240 92q-132 28 -338 28h-356v-380v-1134h408q444 0 656 212q214 212 214 540zM1280 758q0 -150 -56 -276t-162 -210q-90 -72 -216 -104q-126 -30 -328 -30h-210v774v464h210q172 0 286 -22q116 -24 202 -76q130 -78 202 -214 q72 -138 72 -306z" />
<glyph unicode="E" horiz-adv-x="1098" d="M984 0v138h-676v558h652v138h-652v542h676v138h-828v-380v-1134h828z" />
<glyph unicode="F" horiz-adv-x="994" d="M924 1376v138h-768v-380v-1134h152v692h594v138h-594v546h616z" />
<glyph unicode="G" horiz-adv-x="1786" d="M1702 698h-1028v-136h846q-14 -64 -48 -122q-32 -60 -78 -112q-86 -94 -214 -156q-126 -60 -272 -60q-98 0 -188 26q-88 24 -164 70q-142 84 -226 228q-86 144 -86 320q0 178 84 322t226 228q76 46 164 70q90 24 188 24q174 0 314 -76q142 -76 220 -214h170 q-76 194 -272 312q-198 118 -446 118q-118 0 -226 -30q-106 -30 -200 -86q-170 -100 -272 -276q-104 -174 -104 -388q0 -216 106 -392q104 -176 280 -278q94 -56 206 -86q110 -30 232 -30q116 0 220 30t194 82q164 100 264 264q98 162 110 348z" />
<glyph unicode="H" horiz-adv-x="1398" d="M1244 0v1514h-152v-666h-784v666h-152v-380v-1134h152v710h784v-710h152z" />
<glyph unicode="I" horiz-adv-x="462" d="M308 0v1514h-152v-380v-1134h152z" />
<glyph unicode="J" horiz-adv-x="988" d="M832 474v1040h-152v-1040q0 -180 -64 -272t-186 -92q-112 0 -182 66q-68 68 -76 182h-150q10 -180 118 -284q106 -102 288 -102q194 0 298 124q106 126 106 378z" />
<glyph unicode="K" horiz-adv-x="1210" d="M1198 0q-150 194 -598 776q150 184 598 738h-190q-176 -218 -700 -870v870h-152v-380v-1134h152v414q48 60 196 242l504 -656h190z" />
<glyph unicode="L" horiz-adv-x="946" d="M934 0v138h-626v1376h-152v-380v-1134h778z" />
<glyph unicode="M" horiz-adv-x="1882" d="M1726 0v1514h-236q-136 -322 -548 -1288q-138 322 -550 1288h-236v-380v-1134h152v1348q142 -338 566 -1348h132q142 336 568 1348v-1348h152z" />
<glyph unicode="N" horiz-adv-x="1516" d="M1360 0v1514h-152v-1256l-848 1256h-204v-380v-1134h152v1332q224 -334 900 -1332h152z" />
<glyph unicode="O" horiz-adv-x="1780" d="M1690 756q0 114 -32 218t-88 194q-106 168 -286 270t-394 102q-114 0 -220 -30q-106 -32 -198 -88q-170 -104 -276 -278t-106 -378q0 -116 32 -222q30 -106 88 -196q106 -170 286 -272q178 -102 394 -102q214 0 394 102q178 102 286 270q56 88 88 194q32 104 32 216z M1536 754q0 -92 -26 -178q-26 -84 -72 -158q-86 -136 -230 -222q-146 -84 -318 -84q-92 0 -178 26t-162 72q-138 86 -222 232q-84 144 -84 320q0 90 26 176q26 84 72 158q86 136 232 220t316 84q172 0 318 -84q144 -84 230 -222q46 -76 72 -162t26 -178z" />
<glyph unicode="P" horiz-adv-x="1212" d="M1158 1054q0 238 -136 350q-136 110 -448 110h-418v-380v-1134h152v612h290q308 0 434 114t126 328zM1004 1054q0 -164 -96 -234q-94 -70 -320 -70h-280v626h214q76 0 142 -2q68 -4 122 -14q102 -22 160 -90q58 -66 58 -216z" />
<glyph unicode="Q" horiz-adv-x="1784" d="M1690 756q0 -160 -62 -300q-62 -142 -168 -248q52 -66 158 -198q-40 -32 -120 -98q-32 40 -34 40q-2 2 -54 68q-12 16 -30 38t-42 52q-96 -66 -210 -100q-114 -36 -238 -36q-116 0 -224 30q-106 32 -198 88q-170 104 -274 282t-104 392q0 110 32 212q32 104 90 192 q108 166 288 268t390 102q214 0 394 -102t286 -270q56 -90 88 -194q32 -106 32 -218zM890 112q100 0 190 30q90 28 168 80q-70 84 -208 256q42 32 122 98q42 -50 42 -52q2 -2 70 -86q16 -20 38 -48q24 -28 54 -66q80 86 124 196q46 110 46 234q0 92 -26 178t-72 162 q-86 136 -230 222q-146 84 -318 84q-90 0 -176 -24q-86 -26 -160 -72q-138 -86 -224 -230t-86 -312q0 -94 26 -180q24 -88 70 -162q86 -138 232 -222q144 -86 318 -86z" />
<glyph unicode="R" horiz-adv-x="1244" d="M1182 1026q0 236 -148 362t-504 126h-374v-380v-1134h152v1376h212q264 0 386 -78q122 -76 122 -266q0 -204 -124 -276q-126 -70 -444 -70q170 -228 510 -686h190q-106 142 -424 566q218 22 332 140t114 320z" />
<glyph unicode="S" horiz-adv-x="1020" d="M974 422q0 100 -38 184q-40 86 -112 140q-46 34 -106 60q-58 24 -176 60q-102 32 -148 50t-74 44q-32 28 -52 76t-20 100q0 114 74 190q74 74 188 74q116 0 192 -72q78 -74 78 -198h158q0 184 -120 298q-118 112 -304 112q-182 0 -302 -116q-118 -114 -118 -292 q0 -78 28 -148q28 -72 78 -120q46 -42 98 -68q54 -24 186 -64q194 -60 266 -128q72 -66 72 -190q0 -130 -86 -216q-84 -86 -214 -86q-128 0 -212 80q-86 80 -104 232h-160q10 -204 138 -328q130 -122 334 -122q196 0 326 126q130 128 130 322z" />
<glyph unicode="T" horiz-adv-x="872" d="M858 1376v138h-844v-36v-102h346v-1376h152v1376h346z" />
<glyph unicode="U" horiz-adv-x="1342" d="M1186 570v944h-152v-944q0 -232 -94 -344q-94 -114 -268 -114q-178 0 -272 114q-92 112 -92 344v944h-152v-104v-840q0 -310 142 -454q142 -142 372 -142t372 142q144 144 144 454z" />
<glyph unicode="V" horiz-adv-x="1438" d="M1418 1514h-164q-134 -332 -536 -1326q-132 332 -532 1326h-166q156 -378 624 -1514h146q158 378 628 1514z" />
<glyph unicode="W" horiz-adv-x="1966" d="M1946 1514h-156q-94 -330 -372 -1318q-92 330 -364 1318h-142q-92 -330 -364 -1318q-92 330 -372 1318h-156q108 -378 432 -1514h198q82 310 330 1242q84 -312 336 -1242h196q108 378 434 1514z" />
<glyph unicode="X" horiz-adv-x="1248" d="M1230 0q-128 194 -516 774q122 184 486 740h-176q-100 -152 -400 -606q-100 150 -400 606h-178q120 -186 484 -740q-128 -194 -514 -774h178q108 162 430 648q108 -162 428 -648h178z" />
<glyph unicode="Y" horiz-adv-x="1212" d="M1208 1514h-166l-440 -848q-108 212 -430 848h-168q132 -252 524 -1008v-506h152v506z" />
<glyph unicode="Z" horiz-adv-x="984" d="M970 0v138h-764q186 308 742 1238v138h-890v-138h720q-186 -310 -744 -1238v-36v-102h936z" />
<glyph unicode="[" horiz-adv-x="718" d="M642 -256v154q-154 68 -212 168t-58 296v556q0 180 60 278q58 98 210 164v154q-186 -52 -300 -198q-112 -148 -112 -370v-610q0 -254 110 -396q112 -140 302 -196z" />
<glyph unicode="\" horiz-adv-x="1240" d="M950 0q-158 378 -634 1514h-144q158 -378 634 -1514h144z" />
<glyph unicode="]" horiz-adv-x="718" d="M490 314v608q0 256 -114 396q-112 142 -298 196v-154q152 -68 210 -168t58 -294v-558q0 -182 -58 -278q-60 -96 -210 -164v-154q184 50 298 196q114 148 114 374z" />
<glyph unicode="^" horiz-adv-x="1242" d="M1204 368q-124 286 -496 1146h-174q-124 -286 -498 -1146h166q106 246 420 984l416 -984h166z" />
<glyph unicode="_" horiz-adv-x="1024" d="M1024 -256v118h-128h-896v-36v-82h1024z" />
<glyph unicode="`" horiz-adv-x="768" d="M538 1332q-98 58 -394 236q-18 -28 -70 -118q98 -58 394 -234q18 30 70 116z" />
<glyph unicode="a" horiz-adv-x="1398" d="M1270 0v1120h-152v-198q-82 116 -190 170q-106 54 -252 54q-88 0 -168 -22t-148 -64q-124 -74 -200 -206q-74 -132 -74 -296q0 -88 22 -168q24 -78 64 -146q78 -124 212 -198q134 -72 302 -72q142 0 244 52q100 50 188 170v-196h152zM1118 566q0 -192 -124 -322 q-124 -132 -306 -132q-190 0 -320 132q-128 132 -128 324q0 182 128 310q130 130 312 130q184 0 312 -128q126 -128 126 -314z" />
<glyph unicode="b" horiz-adv-x="1396" d="M1310 562q0 160 -74 290q-76 132 -202 208q-68 42 -146 64q-80 22 -168 22q-140 0 -254 -56t-186 -162v586h-150v-190v-1324h150v192q72 -104 186 -162q114 -56 252 -56q90 0 170 22t148 62q126 76 200 208t74 296zM1158 566q0 -194 -128 -324q-126 -130 -316 -130 q-184 0 -314 134t-130 320t130 314t316 128q190 0 316 -128q126 -126 126 -314z" />
<glyph unicode="c" horiz-adv-x="1326" d="M1246 330h-172q-88 -118 -176 -168q-90 -50 -208 -50q-188 0 -320 130q-130 132 -130 318q0 188 128 318t316 130q124 0 224 -58q100 -60 166 -170h170q-68 170 -218 268t-340 98q-88 0 -168 -22q-82 -22 -150 -64q-128 -76 -204 -208q-78 -130 -78 -288q0 -88 24 -168 q22 -80 66 -148q80 -124 216 -200q136 -74 304 -74q174 0 310 82q138 82 240 274z" />
<glyph unicode="d" horiz-adv-x="1402" d="M1274 0v1514h-152v-572q-82 100 -196 152q-112 52 -244 52q-88 0 -170 -22q-80 -22 -148 -62q-126 -78 -202 -208q-76 -132 -76 -294q0 -88 24 -168q22 -78 66 -146q80 -124 216 -198t304 -74q140 0 240 54q102 54 186 174v-202h152zM1128 564q0 -66 -16 -126 q-18 -58 -50 -110q-58 -96 -154 -156q-98 -60 -216 -60q-192 0 -322 130q-130 132 -130 324q0 184 128 312q128 130 310 130q186 0 318 -130t132 -314z" />
<glyph unicode="e" horiz-adv-x="1332" d="M1252 510q0 298 -168 468q-168 168 -416 168q-86 0 -164 -22t-144 -64q-124 -76 -200 -206q-74 -130 -74 -288q0 -88 22 -168q24 -80 66 -146q78 -126 210 -202t294 -76q190 0 340 118q150 116 204 276h-158q-46 -114 -154 -184q-108 -72 -236 -72q-172 0 -300 116 t-136 282h1014zM1100 648h-858q30 160 148 260q116 100 276 100q162 0 278 -96q118 -98 156 -264z" />
<glyph unicode="f" horiz-adv-x="644" d="M636 984v136h-278q-2 140 62 198q62 58 216 58v138q-216 0 -324 -100q-108 -98 -106 -294h-174v-136h174v-984h152v984h278z" />
<glyph unicode="g" horiz-adv-x="1378" d="M1250 200v920h-152v-198q-84 114 -190 170q-108 54 -248 54q-160 0 -288 -74t-202 -200q-40 -68 -62 -148t-22 -168q0 -160 74 -290q76 -130 200 -208q66 -40 144 -62q80 -22 166 -22q150 0 256 62t172 192v-76q0 -222 -104 -338q-106 -116 -308 -116q-142 0 -234 58 t-178 210h-148q62 -198 208 -302q144 -104 356 -104q146 0 264 52q118 54 190 148q58 78 82 176q24 100 24 264zM1098 574q0 -198 -122 -330q-124 -132 -306 -132q-184 0 -308 130q-122 130 -122 326q0 192 120 316q122 124 308 124q180 0 306 -126q124 -126 124 -308z" />
<glyph unicode="h" horiz-adv-x="1250" d="M1120 0v602q0 282 -132 414q-132 130 -352 130q-114 0 -206 -44t-150 -128v540h-150v-190v-1324h150v614q0 206 98 300t244 94q154 0 250 -98t96 -308v-602h152z" />
<glyph unicode="i" horiz-adv-x="410" d="M280 0v1120h-150v-280v-840h150zM280 1244v258h-150v-66v-192h150z" />
<glyph unicode="j" horiz-adv-x="416" d="M286 78v1042h-150v-1042q0 -176 -50 -246q-50 -72 -178 -80v-146q190 8 284 118q94 112 94 354zM286 1244v258h-150v-258h150z" />
<glyph unicode="k" horiz-adv-x="1028" d="M1018 0q-116 140 -466 558q110 140 438 562h-188q-130 -170 -522 -680v1074h-150v-190v-1324h150v232l176 216q94 -112 374 -448h188z" />
<glyph unicode="l" horiz-adv-x="410" d="M280 0v1514h-150v-190v-1324h150z" />
<glyph unicode="m" horiz-adv-x="1922" d="M1792 0v666q0 244 -124 364q-124 118 -316 118q-130 0 -224 -52t-166 -164q-66 112 -152 164q-88 50 -214 50q-106 0 -178 -34q-72 -36 -138 -120v128h-150v-280v-840h150v654q0 166 80 260t222 94q128 0 216 -84q86 -84 86 -270v-654h152v650q0 190 88 274q86 86 220 86 q138 0 218 -86q78 -86 78 -274v-650h152z" />
<glyph unicode="n" horiz-adv-x="1250" d="M1120 0v588q0 294 -134 426t-344 132q-112 0 -202 -42q-88 -44 -160 -130v146h-150v-280v-840h150v616q0 206 96 298q94 94 246 94q156 0 252 -96q94 -96 94 -324v-588h152z" />
<glyph unicode="o" horiz-adv-x="1342" d="M1256 558q0 256 -166 422q-164 166 -416 166q-88 0 -166 -22q-80 -22 -146 -62q-126 -76 -202 -206q-74 -128 -74 -288q0 -258 170 -426q168 -168 430 -168q86 0 164 22q76 22 142 62q120 74 192 204q72 132 72 296zM1102 556q0 -192 -118 -318q-120 -126 -302 -126 q-194 0 -318 128q-124 126 -124 324q0 190 124 316q124 128 310 128q184 0 306 -130q122 -128 122 -322z" />
<glyph unicode="p" horiz-adv-x="1396" d="M1310 558q0 86 -22 166t-64 148q-76 124 -208 200q-132 74 -296 74q-142 0 -256 -56q-112 -56 -184 -162v192h-150v-190v-1324h150v586q74 -108 186 -162q112 -56 250 -56q88 0 168 22t148 64q126 76 202 206q76 132 76 292zM1158 558q0 -190 -128 -318 q-126 -128 -314 -128q-192 0 -318 130q-128 130 -128 324q0 186 130 314q128 128 314 128q190 0 316 -128q128 -130 128 -322z" />
<glyph unicode="q" horiz-adv-x="1396" d="M1268 -394v1514h-152v-192q-70 108 -184 164q-114 54 -256 54q-88 0 -168 -22q-78 -22 -146 -64q-126 -76 -200 -208q-76 -132 -76 -292q0 -162 76 -294q76 -130 202 -206q70 -42 148 -64q80 -22 168 -22q140 0 252 56q110 54 184 162v-586h152zM1126 552 q0 -184 -128 -312q-130 -128 -316 -128q-188 0 -316 128q-126 128 -126 318q0 192 126 322q128 128 316 128q190 0 318 -130q126 -130 126 -326z" />
<glyph unicode="r" horiz-adv-x="616" d="M598 998v148q-122 -6 -198 -50q-74 -44 -120 -136v160h-150v-280v-840h150v654q0 156 80 242t238 102z" />
<glyph unicode="s" horiz-adv-x="794" d="M740 322q0 102 -48 174q-48 70 -148 112q-126 52 -156 66q-30 12 -54 24q-52 26 -78 62q-24 36 -24 86q0 68 46 114q48 48 116 48q72 0 118 -42t46 -122h152q0 134 -90 218t-224 84q-138 0 -228 -88q-90 -90 -90 -226q0 -60 22 -112q20 -50 62 -90q34 -32 60 -46 q28 -14 146 -62q122 -48 170 -90q48 -40 48 -124q0 -86 -54 -140q-54 -56 -134 -56q-94 0 -154 58q-58 56 -58 160h-150q0 -164 100 -260t262 -96q150 0 246 96q96 98 96 252z" />
<glyph unicode="t" horiz-adv-x="694" d="M670 984v136h-252v394h-152v-394h-242v-34v-102h242v-984h152v984h252z" />
<glyph unicode="u" horiz-adv-x="1246" d="M1116 0v1120h-152v-576q0 -228 -96 -330q-98 -102 -252 -102q-162 0 -248 96q-88 94 -88 308v604h-150v-66v-538q0 -294 130 -418t344 -124q130 0 218 48q86 48 142 152v-174h152z" />
<glyph unicode="v" d="M1118 1120h-154q-100 -236 -400 -942q-100 236 -394 942h-154l472 -1120h160q116 280 470 1120z" />
<glyph unicode="w" horiz-adv-x="1702" d="M1688 1120h-148q-92 -234 -364 -938q-66 200 -264 802h-126q-66 -202 -264 -802q-88 234 -356 938h-152q108 -280 428 -1120h164q60 186 242 744q60 -186 244 -744h162q108 280 434 1120z" />
<glyph unicode="x" horiz-adv-x="984" d="M966 0q-98 142 -390 572q98 136 390 548h-174q-74 -108 -300 -432l-304 432h-172q98 -136 390 -548q-98 -144 -390 -572h172l304 448q74 -112 300 -448h174z" />
<glyph unicode="y" horiz-adv-x="1098" d="M1080 1120h-162q-96 -222 -380 -892q-88 222 -354 892h-166q108 -270 434 -1084q-44 -106 -182 -430h162q162 380 648 1514z" />
<glyph unicode="z" horiz-adv-x="870" d="M850 0v138h-652q154 212 614 854v128h-772v-136h598q-154 -212 -618 -846v-18v-120h830z" />
<glyph unicode="{" horiz-adv-x="718" d="M556 -258v138q-6 0 -24 2q-80 6 -108 36q-28 28 -28 106v348q0 122 -40 168q-38 46 -144 86q14 6 24 10t14 6q82 30 114 82t32 158v348q0 84 24 110q22 26 136 36v138q-204 -6 -262 -70q-56 -64 -56 -216v-348q0 -94 -32 -130q-30 -34 -130 -52v-140q100 -20 130 -54 q32 -34 32 -130v-348q0 -150 58 -216q58 -64 260 -68z" />
<glyph unicode="|" horiz-adv-x="1376" d="M764 -256v1770h-152v-1770h152z" />
<glyph unicode="}" horiz-adv-x="718" d="M550 558v140q-96 18 -126 52q-28 36 -28 130v348q0 152 -58 216t-260 70v-138q6 0 22 -2q102 -10 120 -44q18 -36 18 -100v-348q0 -128 40 -166q38 -38 142 -90q-104 -40 -144 -86q-38 -46 -38 -168v-348q0 -60 -18 -98t-120 -44q-8 -2 -22 -2v-138q200 4 258 68 q60 64 60 216v348q0 96 28 132q30 34 126 52z" />
<glyph unicode="~" horiz-adv-x="1242" d="M1136 702q-22 24 -90 96q-52 -88 -98 -128t-96 -40q-30 0 -64 10t-100 38q-44 18 -132 56q-48 18 -88 28q-38 10 -70 10q-86 0 -154 -56q-66 -58 -140 -190q30 -32 86 -96q60 100 100 142q38 42 108 42q30 0 56 -8t92 -34q38 -16 114 -46q68 -28 110 -40q44 -12 80 -12 q78 0 156 62q78 64 130 166z" />
<glyph unicode="&#xa1;" horiz-adv-x="604" d="M376 862v258h-150v-258h150zM376 -394v1110h-150v-1110h150z" />
<glyph unicode="&#xa2;" d="M1042 948q-44 126 -144 208q-100 84 -232 102v190h-136v-190q-194 -20 -316 -152t-122 -324q0 -188 124 -322q126 -134 314 -148v-186h136v186q122 14 222 92t142 190h-166q-68 -80 -136 -114q-66 -36 -150 -36q-140 0 -238 98q-96 100 -96 242q0 144 96 240t240 96 q96 0 170 -44t122 -128h170z" />
<glyph unicode="&#xa3;" d="M998 400l150 -12q0 -192 -94 -276q-92 -84 -350 -84h-86h-102h-202h-172q0 26 -10 70q-12 42 -12 68h134h152q42 48 64 106q22 60 22 132q0 94 -40 162t-158 174h-128h-130v14v54v68h72h82q-26 64 -36 106q-8 44 -8 96q0 214 136 352t344 138q206 0 346 -120 q142 -120 162 -312h-66h-74q-32 138 -128 218q-96 78 -238 78q-146 0 -238 -98q-94 -98 -94 -254q0 -58 12 -100q12 -40 46 -104h88h106h210h178v-68v-68h-206h-234q74 -80 110 -162q38 -84 38 -172q0 -58 -14 -112t-46 -128h54h62q166 -6 242 56t56 178z" />
<glyph unicode="&#xa4;" d="M1082 614q0 92 -24 166q-22 74 -70 146q28 28 84 86l-112 112q-22 -22 -88 -86q-68 48 -142 72q-76 22 -164 22q-86 0 -154 -22q-70 -22 -152 -74q-30 28 -88 86q-28 -28 -112 -110q22 -22 90 -86q-52 -70 -74 -142t-22 -164q0 -90 22 -164q22 -76 72 -142l-84 -84 q26 -28 108 -112l86 86q82 -56 152 -78q68 -24 156 -24q86 0 154 22t156 80q28 -28 84 -86q28 28 112 110q-22 20 -86 86q46 58 72 132q24 76 24 168zM936 620q0 -158 -104 -264q-106 -106 -260 -106q-160 0 -266 106q-108 104 -108 262q0 162 106 266q106 106 270 106 q156 0 260 -106q102 -106 102 -264z" />
<glyph unicode="&#xa5;" d="M1206 1514h-156q-110 -212 -442 -844q-112 210 -452 844h-156q76 -142 304 -566h-216v-136h288q26 -48 102 -190h-376v-136h430v-486h150v486h422v136h-368q24 48 98 190h284v136h-210q74 142 298 566z" />
<glyph unicode="&#xa6;" horiz-adv-x="1376" d="M764 804v710h-152v-710h152zM764 -256v708h-152v-708h152z" />
<glyph unicode="&#xa7;" horiz-adv-x="1260" d="M1084 592q0 92 -56 166q-56 72 -168 124q-108 52 -324 152q-58 28 -90 74q-30 48 -30 102q0 84 60 138t152 54t146 -40q52 -42 70 -120h146q-12 132 -112 214q-100 84 -250 84q-152 0 -252 -94q-100 -96 -100 -240q0 -62 18 -110q18 -46 60 -90q-88 -64 -132 -140 t-44 -172q0 -90 48 -150q50 -58 176 -120q98 -48 292 -144q104 -50 148 -98t44 -110q0 -96 -70 -160t-174 -64q-120 0 -198 78t-88 206h-138q6 -186 124 -304q120 -116 300 -116q164 0 274 104t110 260q0 62 -24 116t-74 108q76 54 116 130q40 78 40 162zM944 574 q0 -56 -30 -110t-80 -92q-136 66 -406 198q-56 26 -82 62q-28 38 -28 84q0 62 30 120q32 56 86 94q128 -60 386 -182q62 -30 94 -74q30 -44 30 -100z" />
<glyph unicode="&#xa8;" horiz-adv-x="756" d="M304 1244v258h-152v-258h152zM604 1244v258h-152v-258h152z" />
<glyph unicode="&#xa9;" horiz-adv-x="1530" d="M1490 698q0 106 -28 202t-80 180q-96 154 -258 248q-164 96 -358 96t-356 -96q-162 -94 -258 -248q-52 -82 -80 -180q-28 -96 -28 -202q0 -194 92 -356q94 -162 250 -258q82 -52 178 -80t202 -28q194 0 358 94q162 94 258 248q52 82 80 178q28 98 28 202zM1416 698 q0 -174 -86 -320q-84 -146 -222 -230q-76 -46 -162 -72q-86 -24 -180 -24q-174 0 -320 84t-230 222q-46 74 -72 160t-26 180t26 180q26 88 72 162q84 138 230 222q144 86 320 86q94 0 180 -26q88 -26 162 -72q138 -86 222 -232q86 -146 86 -320zM1228 518h-128 q-70 -82 -142 -118q-70 -36 -168 -36q-150 0 -260 98q-108 98 -108 236q0 144 106 238q106 96 260 96q94 0 172 -34t134 -118h128q-48 118 -166 188q-120 70 -270 70q-208 0 -344 -126t-136 -316q0 -186 138 -312q140 -126 348 -126q148 0 258 66t178 194z" />
<glyph unicode="&#xaa;" horiz-adv-x="756" d="M682 918v596h-98v-92q-30 46 -88 74q-58 30 -122 30q-128 0 -220 -92q-90 -90 -90 -218q0 -126 92 -220q90 -92 216 -92q66 0 116 24q52 24 96 82v-92h98zM578 1212q0 -80 -60 -144q-62 -64 -142 -64t-142 64t-62 150q0 82 62 144q62 64 142 64t142 -64q60 -64 60 -150z M694 654v104h-630v-26v-78h630z" />
<glyph unicode="&#xab;" horiz-adv-x="870" d="M434 270l-192 344q48 86 192 342q-30 16 -120 66l-232 -408q58 -102 232 -412q30 18 120 68zM788 270l-192 344q48 86 192 342q-30 16 -120 66q-60 -102 -236 -408q60 -102 236 -412q30 18 120 68z" />
<glyph unicode="&#xac;" horiz-adv-x="1242" d="M1112 776h-982v-152h830v-300h152v452z" />
<glyph unicode="&#xad;" horiz-adv-x="680" d="M618 478v128h-554v-32v-96h554z" />
<glyph unicode="&#xae;" horiz-adv-x="1530" d="M1490 698q0 106 -28 202t-80 180q-96 154 -258 248q-164 96 -358 96t-356 -96q-162 -94 -258 -248q-52 -82 -80 -180q-28 -96 -28 -202q0 -194 92 -356q94 -162 250 -258q82 -52 178 -80t202 -28q194 0 358 94q162 94 258 248q52 82 80 178q28 98 28 202zM1416 698 q0 -174 -86 -320q-84 -146 -222 -230q-76 -46 -162 -72q-86 -24 -180 -24q-174 0 -320 84t-230 222q-46 74 -72 160t-26 180t26 180q26 88 72 162q84 138 230 222q144 86 320 86q94 0 180 -26q88 -26 162 -72q138 -86 222 -232q86 -146 86 -320zM1088 272q-64 78 -256 310 q122 18 186 86q64 66 64 176q0 134 -90 206q-88 74 -310 74h-238v-214v-638h118v746h114q148 0 218 -36q70 -38 70 -134q0 -110 -78 -142q-80 -32 -278 -30q110 -134 330 -404h150z" />
<glyph unicode="&#xaf;" horiz-adv-x="994" d="M842 1306v132h-690v-132h690z" />
<glyph unicode="&#xb0;" horiz-adv-x="820" d="M716 1092q0 132 -86 222t-212 90q-132 0 -224 -90t-92 -220q0 -132 90 -224q88 -92 218 -92q128 0 218 90q88 92 88 224zM600 1092q0 -84 -56 -140q-54 -58 -134 -58q-78 0 -136 58q-56 58 -56 140q0 80 56 138t140 58q76 0 132 -58q54 -58 54 -138z" />
<glyph unicode="&#xb1;" horiz-adv-x="1242" d="M1112 588v152h-416v416h-152v-416h-414v-152h414v-300h152v300h416zM1112 0v152h-246h-736v-152h982z" />
<glyph unicode="&#xb2;" horiz-adv-x="680" d="M656 1242q0 118 -90 204q-88 84 -216 84q-146 0 -230 -88q-84 -86 -88 -248h124v10q0 104 54 158q52 56 134 56q76 0 132 -52q54 -52 54 -120q0 -60 -30 -102q-30 -40 -142 -142q-110 -102 -334 -308v-26v-78h628v112h-446q68 62 274 248q96 88 136 154q40 64 40 138z " />
<glyph unicode="&#xb3;" horiz-adv-x="680" d="M654 874q0 76 -36 138t-108 106q48 44 66 80t18 88q0 104 -74 174q-72 70 -178 70q-114 0 -184 -74q-68 -74 -70 -196h124q0 78 36 118q34 40 92 40q56 0 92 -36t36 -90q0 -56 -44 -90t-118 -34q-16 0 -44 2v-112q124 0 194 -42q72 -44 72 -146q0 -74 -56 -128 q-58 -56 -134 -56q-70 0 -126 48q-54 48 -60 166h-126q8 -160 96 -242q88 -84 218 -84q128 0 220 88q94 90 94 212z" />
<glyph unicode="&#xb4;" horiz-adv-x="768" d="M694 1450q-18 30 -70 118q-98 -58 -394 -236q16 -30 70 -116q98 58 394 234z" />
<glyph unicode="&#xb5;" horiz-adv-x="1246" d="M1116 0v1120h-152v-576q0 -228 -92 -330q-94 -104 -244 -104q-64 0 -126 26q-64 24 -112 70q-66 60 -88 128t-22 210v576h-150v-190v-1324h150v568q58 -96 150 -148q90 -52 198 -52q120 0 202 50q82 48 134 150v-174h152z" />
<glyph unicode="&#xb6;" horiz-adv-x="1156" d="M1006 -272v1786h-474q-230 0 -344 -110q-112 -110 -112 -280q0 -166 104 -272t284 -124v-1000h154v1648h234v-1648h154z" />
<glyph unicode="&#xb7;" horiz-adv-x="568" d="M414 512q0 54 -38 92q-40 38 -92 38q-54 0 -90 -38q-38 -38 -38 -92t38 -92q36 -38 90 -38q52 0 92 38q38 38 38 92z" />
<glyph unicode="&#xb8;" horiz-adv-x="664" d="M590 -280q0 86 -60 138q-58 54 -140 54q-20 0 -44 -6l-24 -4q12 36 34 108h-80q-18 -48 -78 -192q18 -10 66 -40q20 20 44 30q22 10 50 10q46 0 76 -30q28 -28 28 -78q0 -46 -26 -76q-28 -30 -72 -30q-38 0 -58 16t-32 52l-108 -12q18 -78 68 -126t128 -48q104 0 166 70 q62 68 62 164z" />
<glyph unicode="&#xb9;" horiz-adv-x="680" d="M478 590v924h-278v-114h154v-810h124z" />
<glyph unicode="&#xba;" horiz-adv-x="756" d="M690 1216q0 126 -92 218q-94 92 -220 92t-220 -92q-92 -90 -92 -214q0 -132 90 -224q92 -90 220 -90t222 92q92 92 92 218zM582 1212q0 -84 -60 -146q-60 -60 -144 -60q-86 0 -144 62q-60 60 -60 148q0 86 60 148q58 62 142 62q88 0 148 -62q58 -60 58 -152zM690 654v104 h-624v-104h624z" />
<glyph unicode="&#xbb;" horiz-adv-x="870" d="M788 614q-58 102 -230 408q-32 -16 -122 -66q48 -86 192 -342l-192 -344q30 -16 122 -68q56 104 230 412zM438 614q-58 102 -236 408q-30 -16 -120 -66q48 -86 192 -342l-192 -344q30 -16 120 -68q60 104 236 412z" />
<glyph unicode="&#xbc;" horiz-adv-x="1702" d="M1644 162v112h-86v650h-132q-116 -166 -464 -660v-102h474v-162h122v162h86zM1436 274h-320q80 116 320 462v-462zM1244 1514h-114q-174 -378 -698 -1514h110q176 378 702 1514zM484 590v924h-278v-114h154v-810h124z" />
<glyph unicode="&#xbd;" horiz-adv-x="1702" d="M1232 1514h-112q-174 -378 -698 -1514h110q176 378 700 1514zM474 590v924h-278v-114h154v-810h124zM1668 652q0 120 -90 204q-88 84 -216 84q-146 0 -230 -88q-84 -86 -88 -248h124v10q0 104 52 160q54 54 136 54q76 0 132 -52q54 -52 54 -120q0 -60 -30 -100 q-30 -42 -142 -144t-334 -308v-104h626v112h-444l272 248q98 88 138 154t40 138z" />
<glyph unicode="&#xbe;" horiz-adv-x="1702" d="M1644 162v112h-86v650h-132q-116 -166 -464 -660v-102h474v-162h122v162h86zM1436 274h-320q80 116 320 462v-462zM1300 1514h-112q-174 -378 -698 -1514h110q176 378 700 1514zM654 874q0 76 -38 138q-36 62 -106 106q48 44 66 80t18 88q0 104 -74 174q-72 70 -178 70 q-114 0 -184 -74q-68 -74 -70 -196h124q0 78 36 118q34 40 92 40q56 0 92 -36t36 -90q0 -56 -44 -90t-118 -34q-16 0 -44 2v-112q124 0 194 -42q72 -44 72 -146q0 -74 -56 -128q-58 -56 -134 -56q-70 0 -124 46q-56 48 -62 168h-126q4 -156 94 -242q90 -84 220 -84 q128 0 220 88q94 90 94 212z" />
<glyph unicode="&#xbf;" horiz-adv-x="1210" d="M676 862v258h-152v-258h152zM1078 80h-144q0 -186 -94 -274t-242 -88q-136 0 -224 84q-88 86 -88 218q0 76 34 134q34 56 138 154q118 108 164 200q48 92 50 216h-144q-2 -98 -48 -174t-160 -178q-102 -90 -144 -170q-40 -80 -40 -178q0 -192 130 -318t332 -126t342 126 q138 126 138 374z" />
<glyph unicode="&#xc0;" horiz-adv-x="1516" d="M1492 0q-162 378 -650 1514h-170q-162 -378 -650 -1514h160q56 128 222 510h704q54 -128 220 -510h164zM1048 648h-588q76 172 298 694q72 -174 290 -694zM912 1704q-100 60 -396 238q-18 -30 -70 -120q100 -58 396 -232q18 28 70 114z" />
<glyph unicode="&#xc1;" horiz-adv-x="1516" d="M1492 0q-162 378 -650 1514h-170q-162 -378 -650 -1514h160q56 128 222 510h704q54 -128 220 -510h164zM1048 648h-588q76 172 298 694q72 -174 290 -694zM1068 1822q-18 30 -70 120q-100 -60 -396 -238q18 -28 70 -114q98 58 396 232z" />
<glyph unicode="&#xc2;" horiz-adv-x="1516" d="M1492 0q-162 378 -650 1514h-170q-162 -378 -650 -1514h160q56 128 222 510h704q54 -128 220 -510h164zM1048 648h-588q76 172 298 694q72 -174 290 -694zM1120 1616q-72 64 -292 258h-136q-74 -64 -296 -258h186q44 38 180 152l176 -152h182z" />
<glyph unicode="&#xc3;" horiz-adv-x="1516" d="M1492 0q-162 378 -650 1514h-170q-162 -378 -650 -1514h160q56 128 222 510h704q54 -128 220 -510h164zM1048 648h-588q76 172 298 694q72 -174 290 -694zM1054 1748q-16 24 -66 96q-32 -34 -60 -48q-28 -16 -58 -16q-42 0 -116 32q-72 32 -102 32q-54 0 -106 -28 q-50 -28 -86 -74q24 -30 68 -94q4 4 14 12q40 34 60 44t50 10q14 0 38 -6q22 -6 44 -14q50 -24 80 -36q32 -10 54 -10q52 0 106 30q56 32 80 70z" />
<glyph unicode="&#xc4;" horiz-adv-x="1516" d="M1492 0q-162 378 -650 1514h-170q-162 -378 -650 -1514h160q56 128 222 510h704q54 -128 220 -510h164zM1048 648h-588q76 172 298 694q72 -174 290 -694zM682 1616v258h-152v-258h152zM984 1616v258h-152v-258h152z" />
<glyph unicode="&#xc5;" horiz-adv-x="1516" d="M1492 0q-162 378 -650 1514h-170q-162 -378 -650 -1514h160q56 128 222 510h704q54 -128 220 -510h164zM1048 648h-588q76 172 298 694q72 -174 290 -694zM964 1772q0 84 -60 146q-60 60 -144 60q-88 0 -148 -60q-62 -60 -62 -148q0 -86 62 -146q60 -60 146 -60t146 62 q60 60 60 146zM872 1772q0 -48 -34 -82q-32 -34 -80 -34t-82 34q-32 34 -32 80q0 48 32 82q34 34 82 34t80 -34q34 -34 34 -80z" />
<glyph unicode="&#xc6;" horiz-adv-x="2032" d="M1916 0v138h-652v558h630v138h-630v542h652v138h-846q-262 -378 -1048 -1514h180q90 128 356 512h554v-512h804zM1112 650h-458q114 166 458 668v-668z" />
<glyph unicode="&#xc7;" horiz-adv-x="1666" d="M1576 398h-166q-120 -152 -242 -218q-120 -68 -286 -68q-92 0 -176 26q-86 26 -158 72q-136 86 -220 230q-84 146 -84 318q0 96 24 182t70 160q82 138 224 220q142 80 318 80q160 0 292 -64t228 -216h170q-86 196 -274 308q-186 112 -422 112q-118 0 -224 -30t-196 -84 q-168 -102 -266 -278t-98 -396q0 -206 90 -372q92 -168 246 -272q82 -56 182 -90q98 -34 208 -42q-22 -54 -64 -158q16 -10 66 -40q20 20 42 30q24 10 52 10q46 0 74 -30q30 -28 30 -78q0 -46 -28 -76t-70 -30q-38 0 -60 16q-20 16 -30 52q-36 -4 -110 -12q20 -78 70 -126 t128 -48q104 0 166 70q60 68 60 164q0 86 -58 138q-58 54 -142 54q-18 0 -42 -6l-26 -4l24 72q224 2 396 110q170 106 282 314z" />
<glyph unicode="&#xc8;" horiz-adv-x="1098" d="M984 0v138h-676v558h652v138h-652v542h676v138h-828v-380v-1134h828zM724 1704q-98 60 -394 238q-18 -30 -70 -120q98 -58 396 -232q16 28 68 114z" />
<glyph unicode="&#xc9;" horiz-adv-x="1098" d="M984 0v138h-676v558h652v138h-652v542h676v138h-828v-380v-1134h828zM878 1822q-16 30 -70 120q-98 -60 -394 -238q18 -28 70 -114q98 58 394 232z" />
<glyph unicode="&#xca;" horiz-adv-x="1098" d="M984 0v138h-676v558h652v138h-652v542h676v138h-828v-380v-1134h828zM932 1616q-74 64 -294 258h-134q-74 -64 -298 -258h188q44 38 180 152l176 -152h182z" />
<glyph unicode="&#xcb;" horiz-adv-x="1098" d="M984 0v138h-676v558h652v138h-652v542h676v138h-828v-380v-1134h828zM496 1616v258h-152v-258h152zM796 1616v258h-150v-258h150z" />
<glyph unicode="&#xcc;" horiz-adv-x="462" d="M308 0v1514h-152v-380v-1134h152zM376 1704q-98 60 -394 238q-18 -30 -70 -120q98 -58 396 -232q16 28 68 114z" />
<glyph unicode="&#xcd;" horiz-adv-x="462" d="M308 0v1514h-152v-380v-1134h152zM550 1822q-16 30 -68 120q-100 -60 -396 -238q18 -28 70 -114q98 58 394 232z" />
<glyph unicode="&#xce;" horiz-adv-x="462" d="M308 0v1514h-152v-380v-1134h152zM594 1616q-74 64 -292 258h-136q-74 -64 -298 -258h188q44 38 180 152l176 -152h182z" />
<glyph unicode="&#xcf;" horiz-adv-x="462" d="M308 0v1514h-152v-380v-1134h152zM158 1616v258h-152v-58v-200h152zM458 1616v258h-150v-258h150z" />
<glyph unicode="&#xd0;" horiz-adv-x="1618" d="M1528 752q0 214 -88 378t-256 264q-108 66 -240 92q-132 28 -338 28h-356v-666h-196v-34v-104h196v-710h408q444 0 656 212q214 212 214 540zM1374 758q0 -150 -56 -276t-160 -210q-92 -72 -218 -104q-126 -30 -328 -30h-210v572h420v138h-420v528h210q172 0 288 -22 q114 -24 200 -76q130 -78 202 -214q72 -138 72 -306z" />
<glyph unicode="&#xd1;" horiz-adv-x="1516" d="M1360 0v1514h-152v-1256l-848 1256h-204v-380v-1134h152v1332q224 -334 900 -1332h152zM1056 1748q-16 24 -66 96q-32 -34 -60 -48q-28 -16 -58 -16q-42 0 -116 32q-72 32 -102 32q-54 0 -106 -28q-50 -28 -86 -74q24 -30 68 -94q4 4 14 12q40 34 60 44t50 10q14 0 38 -6 q22 -6 44 -14q50 -24 80 -36q32 -10 54 -10q52 0 106 30q56 32 80 70z" />
<glyph unicode="&#xd2;" horiz-adv-x="1780" d="M1690 756q0 114 -32 218t-88 194q-106 168 -286 270t-394 102q-114 0 -220 -30q-106 -32 -198 -88q-170 -104 -276 -278t-106 -378q0 -116 32 -222q30 -106 88 -196q106 -170 286 -272q178 -102 394 -102q214 0 394 102q178 102 286 270q56 88 88 194q32 104 32 216z M1536 754q0 -92 -26 -178q-26 -84 -72 -158q-86 -136 -230 -222q-146 -84 -318 -84q-92 0 -178 26t-162 72q-138 86 -222 232q-84 144 -84 320q0 90 26 176q26 84 72 158q86 136 232 220t316 84q172 0 318 -84q144 -84 230 -222q46 -76 72 -162t26 -178zM1046 1704 q-98 60 -394 238q-18 -30 -70 -120q98 -58 394 -232q18 28 70 114z" />
<glyph unicode="&#xd3;" horiz-adv-x="1780" d="M1690 756q0 114 -32 218t-88 194q-106 168 -286 270t-394 102q-114 0 -220 -30q-106 -32 -198 -88q-170 -104 -276 -278t-106 -378q0 -116 32 -222q30 -106 88 -196q106 -170 286 -272q178 -102 394 -102q214 0 394 102q178 102 286 270q56 88 88 194q32 104 32 216z M1536 754q0 -92 -26 -178q-26 -84 -72 -158q-86 -136 -230 -222q-146 -84 -318 -84q-92 0 -178 26t-162 72q-138 86 -222 232q-84 144 -84 320q0 90 26 176q26 84 72 158q86 136 232 220t316 84q172 0 318 -84q144 -84 230 -222q46 -76 72 -162t26 -178zM1200 1822 q-18 30 -70 120q-98 -60 -394 -238q16 -28 68 -114q100 58 396 232z" />
<glyph unicode="&#xd4;" horiz-adv-x="1780" d="M1690 756q0 114 -32 218t-88 194q-106 168 -286 270t-394 102q-114 0 -220 -30q-106 -32 -198 -88q-170 -104 -276 -278t-106 -378q0 -116 32 -222q30 -106 88 -196q106 -170 286 -272q178 -102 394 -102q214 0 394 102q178 102 286 270q56 88 88 194q32 104 32 216z M1536 754q0 -92 -26 -178q-26 -84 -72 -158q-86 -136 -230 -222q-146 -84 -318 -84q-92 0 -178 26t-162 72q-138 86 -222 232q-84 144 -84 320q0 90 26 176q26 84 72 158q86 136 232 220t316 84q172 0 318 -84q144 -84 230 -222q46 -76 72 -162t26 -178zM1254 1616 q-74 64 -294 258h-134q-74 -64 -298 -258h186q46 38 180 152q46 -38 178 -152h182z" />
<glyph unicode="&#xd5;" horiz-adv-x="1780" d="M1690 756q0 114 -32 218t-88 194q-106 168 -286 270t-394 102q-114 0 -220 -30q-106 -32 -198 -88q-170 -104 -276 -278t-106 -378q0 -116 32 -222q30 -106 88 -196q106 -170 286 -272q178 -102 394 -102q214 0 394 102q178 102 286 270q56 88 88 194q32 104 32 216z M1536 754q0 -92 -26 -178q-26 -84 -72 -158q-86 -136 -230 -222q-146 -84 -318 -84q-92 0 -178 26t-162 72q-138 86 -222 232q-84 144 -84 320q0 90 26 176q26 84 72 158q86 136 232 220t316 84q172 0 318 -84q144 -84 230 -222q46 -76 72 -162t26 -178zM1190 1748 q-18 24 -68 96q-30 -34 -58 -48q-30 -16 -58 -16q-44 0 -116 32t-104 32q-54 0 -104 -28t-86 -74q22 -30 68 -94q4 4 14 12q40 34 60 44t48 10q16 0 38 -6t44 -14q52 -24 82 -36q30 -10 54 -10q50 0 106 30q56 32 80 70z" />
<glyph unicode="&#xd6;" horiz-adv-x="1780" d="M1690 756q0 114 -32 218t-88 194q-106 168 -286 270t-394 102q-114 0 -220 -30q-106 -32 -198 -88q-170 -104 -276 -278t-106 -378q0 -116 32 -222q30 -106 88 -196q106 -170 286 -272q178 -102 394 -102q214 0 394 102q178 102 286 270q56 88 88 194q32 104 32 216z M1536 754q0 -92 -26 -178q-26 -84 -72 -158q-86 -136 -230 -222q-146 -84 -318 -84q-92 0 -178 26t-162 72q-138 86 -222 232q-84 144 -84 320q0 90 26 176q26 84 72 158q86 136 232 220t316 84q172 0 318 -84q144 -84 230 -222q46 -76 72 -162t26 -178zM818 1616v258h-152 v-258h152zM1118 1616v258h-152v-258h152z" />
<glyph unicode="&#xd7;" horiz-adv-x="1242" d="M1022 218q-74 72 -294 294q72 74 294 294q-26 28 -106 108l-296 -296q-74 74 -294 296q-26 -28 -106 -108l294 -294l-294 -294q26 -28 106 -108q74 74 294 296l296 -296q26 28 106 108z" />
<glyph unicode="&#xd8;" horiz-adv-x="1778" d="M1688 762q0 174 -68 322q-68 146 -202 260q62 84 188 252q-28 20 -110 86q-50 -64 -194 -256q-76 52 -190 82q-112 32 -230 32q-216 0 -394 -100t-280 -268q-56 -90 -88 -194q-30 -106 -30 -220q0 -176 70 -328q70 -154 200 -262q-64 -84 -190 -254q28 -22 114 -84 q48 64 194 256q92 -56 198 -84q108 -28 218 -28q216 0 394 100q178 102 282 270q56 90 86 196q32 106 32 222zM1218 1312q-192 -256 -770 -1030q-102 98 -154 214q-50 116 -50 254q0 178 82 324t218 230q72 46 158 72q86 24 178 24t180 -22t158 -66zM1534 756 q0 -176 -82 -320t-220 -228q-74 -46 -160 -70q-86 -26 -180 -26q-88 0 -166 20t-164 66q256 344 770 1030q104 -100 152 -216q50 -114 50 -256z" />
<glyph unicode="&#xd9;" horiz-adv-x="1342" d="M1186 570v944h-152v-944q0 -232 -94 -344q-94 -114 -268 -114q-178 0 -272 114q-92 112 -92 344v944h-152v-104v-840q0 -310 142 -454q142 -142 372 -142t372 142q144 144 144 454zM826 1704q-100 60 -396 238q-18 -30 -70 -120q100 -58 396 -232q18 28 70 114z" />
<glyph unicode="&#xda;" horiz-adv-x="1342" d="M1186 570v944h-152v-944q0 -232 -94 -344q-94 -114 -268 -114q-178 0 -272 114q-92 112 -92 344v944h-152v-104v-840q0 -310 142 -454q142 -142 372 -142t372 142q144 144 144 454zM980 1822q-16 30 -68 120q-100 -60 -396 -238q18 -28 70 -114q98 58 394 232z" />
<glyph unicode="&#xdb;" horiz-adv-x="1342" d="M1186 570v944h-152v-944q0 -232 -94 -344q-94 -114 -268 -114q-178 0 -272 114q-92 112 -92 344v944h-152v-104v-840q0 -310 142 -454q142 -142 372 -142t372 142q144 144 144 454zM1034 1616q-72 64 -292 258h-136q-74 -64 -296 -258h186q44 38 180 152l176 -152h182z " />
<glyph unicode="&#xdc;" horiz-adv-x="1342" d="M1186 570v944h-152v-944q0 -232 -94 -344q-94 -114 -268 -114q-178 0 -272 114q-92 112 -92 344v944h-152v-104v-840q0 -310 142 -454q142 -142 372 -142t372 142q144 144 144 454zM596 1616v258h-152v-258h152zM898 1616v258h-152v-258h152z" />
<glyph unicode="&#xdd;" horiz-adv-x="1212" d="M1208 1514h-166l-440 -848q-108 212 -430 848h-168q132 -252 524 -1008v-506h152v506zM914 1822q-18 30 -70 120q-100 -60 -396 -238q18 -28 70 -114q98 58 396 232z" />
<glyph unicode="&#xde;" horiz-adv-x="1212" d="M1158 782q0 238 -136 348q-136 112 -448 112h-282v272h-136v-380v-1134h152v340h290q308 0 434 114t126 328zM1004 782q0 -164 -96 -234q-94 -70 -320 -70h-280v626h214q76 0 142 -2q68 -4 122 -16q102 -22 160 -88t58 -216z" />
<glyph unicode="&#xdf;" d="M1074 408q0 146 -72 246t-206 142q90 54 132 130q42 78 42 188q0 182 -122 304q-124 122 -310 122q-208 0 -312 -136q-106 -134 -106 -418v-300v-686h152v224q58 -126 154 -188t228 -62q180 0 300 124t120 310zM920 404q0 -124 -78 -208q-80 -84 -192 -84q-118 0 -194 86 q-76 84 -80 218h-104v248v322q0 222 66 318t204 96q118 0 198 -78q78 -80 78 -200q0 -134 -90 -210q-92 -76 -250 -76h-20v-138q52 4 66 4h26q172 0 272 -80q98 -78 98 -218z" />
<glyph unicode="&#xe0;" horiz-adv-x="1398" d="M1270 0v1120h-152v-198q-82 116 -190 170q-106 54 -252 54q-88 0 -168 -22t-148 -64q-124 -74 -200 -206q-74 -132 -74 -296q0 -88 22 -168q24 -78 64 -146q78 -124 212 -198q134 -72 302 -72q142 0 244 52q100 50 188 170v-196h152zM1118 566q0 -192 -124 -322 q-124 -132 -306 -132q-190 0 -320 132q-128 132 -128 324q0 182 128 310q130 130 312 130q184 0 312 -128q126 -128 126 -314zM832 1332q-100 58 -396 236q-18 -28 -70 -118q100 -58 396 -234q18 30 70 116z" />
<glyph unicode="&#xe1;" horiz-adv-x="1398" d="M1270 0v1120h-152v-198q-82 116 -190 170q-106 54 -252 54q-88 0 -168 -22t-148 -64q-124 -74 -200 -206q-74 -132 -74 -296q0 -88 22 -168q24 -78 64 -146q78 -124 212 -198q134 -72 302 -72q142 0 244 52q100 50 188 170v-196h152zM1118 566q0 -192 -124 -322 q-124 -132 -306 -132q-190 0 -320 132q-128 132 -128 324q0 182 128 310q130 130 312 130q184 0 312 -128q126 -128 126 -314zM986 1450q-18 30 -70 118q-100 -58 -396 -236q18 -30 70 -116q98 58 396 234z" />
<glyph unicode="&#xe2;" horiz-adv-x="1398" d="M1270 0v1120h-152v-198q-82 116 -190 170q-106 54 -252 54q-88 0 -168 -22t-148 -64q-124 -74 -200 -206q-74 -132 -74 -296q0 -88 22 -168q24 -78 64 -146q78 -124 212 -198q134 -72 302 -72q142 0 244 52q100 50 188 170v-196h152zM1118 566q0 -192 -124 -322 q-124 -132 -306 -132q-190 0 -320 132q-128 132 -128 324q0 182 128 310q130 130 312 130q184 0 312 -128q126 -128 126 -314zM1038 1244q-72 64 -292 258h-136q-74 -66 -296 -258h186q44 38 180 150q44 -38 176 -150h182z" />
<glyph unicode="&#xe3;" horiz-adv-x="1398" d="M1270 0v1120h-152v-198q-82 116 -190 170q-106 54 -252 54q-88 0 -168 -22t-148 -64q-124 -74 -200 -206q-74 -132 -74 -296q0 -88 22 -168q24 -78 64 -146q78 -124 212 -198q134 -72 302 -72q142 0 244 52q100 50 188 170v-196h152zM1118 566q0 -192 -124 -322 q-124 -132 -306 -132q-190 0 -320 132q-128 132 -128 324q0 182 128 310q130 130 312 130q184 0 312 -128q126 -128 126 -314zM972 1376q-16 24 -66 94q-32 -32 -60 -48t-58 -16q-42 0 -116 32q-72 32 -102 32q-54 0 -106 -26q-50 -28 -86 -74q24 -32 68 -94q4 2 14 12 q40 34 60 44t50 10q14 0 38 -6q22 -6 44 -16q50 -24 80 -34q32 -10 54 -10q52 0 106 30q56 30 80 70z" />
<glyph unicode="&#xe4;" horiz-adv-x="1398" d="M1270 0v1120h-152v-198q-82 116 -190 170q-106 54 -252 54q-88 0 -168 -22t-148 -64q-124 -74 -200 -206q-74 -132 -74 -296q0 -88 22 -168q24 -78 64 -146q78 -124 212 -198q134 -72 302 -72q142 0 244 52q100 50 188 170v-196h152zM1118 566q0 -192 -124 -322 q-124 -132 -306 -132q-190 0 -320 132q-128 132 -128 324q0 182 128 310q130 130 312 130q184 0 312 -128q126 -128 126 -314zM600 1244v258h-152v-258h152zM902 1244v258h-152v-258h152z" />
<glyph unicode="&#xe5;" horiz-adv-x="1398" d="M1270 0v1120h-152v-198q-82 116 -190 170q-106 54 -252 54q-88 0 -168 -22t-148 -64q-124 -74 -200 -206q-74 -132 -74 -296q0 -88 22 -168q24 -78 64 -146q78 -124 212 -198q134 -72 302 -72q142 0 244 52q100 50 188 170v-196h152zM1118 566q0 -192 -124 -322 q-124 -132 -306 -132q-190 0 -320 132q-128 132 -128 324q0 182 128 310q130 130 312 130q184 0 312 -128q126 -128 126 -314zM882 1392q0 86 -60 146q-60 62 -144 62q-88 0 -148 -62q-62 -60 -62 -148q0 -84 62 -144q60 -60 146 -60t146 60t60 146zM790 1392q0 -46 -34 -80 q-32 -34 -80 -34t-82 34q-32 32 -32 78q0 50 32 84q34 34 82 34t80 -34q34 -36 34 -82z" />
<glyph unicode="&#xe6;" horiz-adv-x="2370" d="M2290 506q0 318 -172 480q-170 160 -408 160q-136 0 -244 -52q-108 -54 -198 -168v194h-146v-194q-82 114 -190 168q-108 52 -256 52q-90 0 -170 -22q-80 -24 -148 -66q-126 -78 -200 -210q-72 -132 -72 -290q0 -162 76 -294q74 -130 200 -206q68 -40 148 -62t168 -22 q140 0 246 50q104 50 198 164v-188h146v188q92 -108 204 -160q112 -54 246 -54q186 0 336 108t210 282h-158q-48 -114 -154 -184q-104 -68 -234 -68q-174 0 -300 112t-142 282h1014zM2142 644h-860q24 160 144 262q118 102 286 102q164 0 282 -100t148 -264zM1126 562 q0 -190 -128 -320t-316 -130q-186 0 -314 130q-126 130 -126 320t126 318t314 128q194 0 318 -126q126 -128 126 -320z" />
<glyph unicode="&#xe7;" horiz-adv-x="1326" d="M1246 330h-172q-88 -118 -176 -168q-90 -50 -208 -50q-188 0 -320 130q-130 132 -130 318q0 188 128 318t316 130q124 0 224 -58q100 -60 166 -170h170q-68 170 -218 268t-340 98q-88 0 -168 -22q-82 -22 -150 -64q-128 -76 -204 -208q-78 -130 -78 -288q0 -236 156 -400 q156 -166 388 -186q-20 -54 -62 -160l64 -40q20 20 44 30t52 10q46 0 74 -30q30 -28 30 -78q0 -46 -28 -76t-70 -30q-40 0 -60 16t-30 52q-38 -4 -110 -12q18 -78 68 -126t130 -48q104 0 166 70q60 68 60 164q0 86 -58 138q-60 54 -142 54q-18 0 -44 -6l-24 -4q8 24 22 72 q168 2 302 86q132 82 232 270z" />
<glyph unicode="&#xe8;" horiz-adv-x="1332" d="M1252 510q0 298 -168 468q-168 168 -416 168q-86 0 -164 -22t-144 -64q-124 -76 -200 -206q-74 -130 -74 -288q0 -88 22 -168q24 -80 66 -146q78 -126 210 -202t294 -76q190 0 340 118q150 116 204 276h-158q-46 -114 -154 -184q-108 -72 -236 -72q-172 0 -300 116 t-136 282h1014zM1100 648h-858q30 160 148 260q116 100 276 100q162 0 278 -96q118 -98 156 -264zM824 1332q-100 58 -396 236q-18 -28 -70 -118q100 -58 396 -234q18 30 70 116z" />
<glyph unicode="&#xe9;" horiz-adv-x="1332" d="M1252 510q0 298 -168 468q-168 168 -416 168q-86 0 -164 -22t-144 -64q-124 -76 -200 -206q-74 -130 -74 -288q0 -88 22 -168q24 -80 66 -146q78 -126 210 -202t294 -76q190 0 340 118q150 116 204 276h-158q-46 -114 -154 -184q-108 -72 -236 -72q-172 0 -300 116 t-136 282h1014zM1100 648h-858q30 160 148 260q116 100 276 100q162 0 278 -96q118 -98 156 -264zM976 1450q-16 30 -68 118q-100 -58 -396 -236q18 -30 70 -116q98 58 394 234z" />
<glyph unicode="&#xea;" horiz-adv-x="1332" d="M1252 510q0 298 -168 468q-168 168 -416 168q-86 0 -164 -22t-144 -64q-124 -76 -200 -206q-74 -130 -74 -288q0 -88 22 -168q24 -80 66 -146q78 -126 210 -202t294 -76q190 0 340 118q150 116 204 276h-158q-46 -114 -154 -184q-108 -72 -236 -72q-172 0 -300 116 t-136 282h1014zM1100 648h-858q30 160 148 260q116 100 276 100q162 0 278 -96q118 -98 156 -264zM1030 1244q-74 64 -292 258h-136q-74 -66 -296 -258h186q44 38 180 150q44 -38 176 -150h182z" />
<glyph unicode="&#xeb;" horiz-adv-x="1332" d="M1252 510q0 298 -168 468q-168 168 -416 168q-86 0 -164 -22t-144 -64q-124 -76 -200 -206q-74 -130 -74 -288q0 -88 22 -168q24 -80 66 -146q78 -126 210 -202t294 -76q190 0 340 118q150 116 204 276h-158q-46 -114 -154 -184q-108 -72 -236 -72q-172 0 -300 116 t-136 282h1014zM1100 648h-858q30 160 148 260q116 100 276 100q162 0 278 -96q118 -98 156 -264zM592 1244v258h-152v-258h152zM892 1244v258h-150v-258h150z" />
<glyph unicode="&#xec;" horiz-adv-x="410" d="M280 0v1120h-150v-280v-840h150zM350 1332q-98 58 -396 236q-16 -28 -68 -118q98 -58 394 -234q18 30 70 116z" />
<glyph unicode="&#xed;" horiz-adv-x="410" d="M280 0v1120h-150v-280v-840h150zM524 1450q-18 30 -70 118q-98 -58 -394 -236q16 -30 70 -116q98 58 394 234z" />
<glyph unicode="&#xee;" horiz-adv-x="410" d="M280 0v1120h-150v-280v-840h150zM568 1244q-74 64 -294 258h-134q-74 -66 -298 -258h186q46 38 180 150q44 -38 178 -150h182z" />
<glyph unicode="&#xef;" horiz-adv-x="410" d="M280 0v1120h-150v-280v-840h150zM130 1244v258h-152v-66v-192h152zM430 1244v258h-152v-258h152z" />
<glyph unicode="&#xf0;" horiz-adv-x="1342" d="M1256 572q0 216 -126 398t-354 382q60 26 182 80q-20 22 -80 90q-48 -22 -194 -86q-38 34 -66 56t-74 56l-108 -60l56 -48q24 -22 34 -30q8 -10 34 -34l-162 -72q18 -22 74 -94q44 20 178 80q48 -42 74 -68q26 -24 120 -120q-66 22 -106 30q-40 6 -90 6q-156 0 -282 -72 q-126 -74 -198 -196q-40 -66 -60 -144q-22 -78 -22 -164q0 -90 22 -170q22 -78 64 -146q78 -126 210 -198q134 -74 302 -74q252 0 412 166q160 168 160 432zM1102 558q0 -196 -118 -320q-118 -126 -302 -126q-194 0 -318 128q-124 126 -124 324q0 190 124 316 q124 128 310 128q184 0 306 -128q122 -130 122 -322z" />
<glyph unicode="&#xf1;" horiz-adv-x="1250" d="M1120 0v588q0 294 -134 426t-344 132q-112 0 -202 -42q-88 -44 -160 -130v146h-150v-280v-840h150v616q0 206 96 298q94 94 246 94q156 0 252 -96q94 -96 94 -324v-588h152zM922 1376q-18 24 -68 94q-30 -32 -60 -48q-28 -16 -56 -16q-44 0 -116 32q-74 32 -104 32 q-54 0 -104 -26q-50 -28 -86 -74q22 -32 68 -94q2 2 14 12q40 34 60 44q18 10 48 10q16 0 38 -6t44 -16q50 -24 82 -34q30 -10 54 -10q50 0 106 30t80 70z" />
<glyph unicode="&#xf2;" horiz-adv-x="1342" d="M1256 558q0 256 -166 422q-164 166 -416 166q-88 0 -166 -22q-80 -22 -146 -62q-126 -76 -202 -206q-74 -128 -74 -288q0 -258 170 -426q168 -168 430 -168q86 0 164 22q76 22 142 62q120 74 192 204q72 132 72 296zM1102 556q0 -192 -118 -318q-120 -126 -302 -126 q-194 0 -318 128q-124 126 -124 324q0 190 124 316q124 128 310 128q184 0 306 -130q122 -128 122 -322zM830 1332q-100 58 -396 236q-18 -28 -70 -118q100 -58 396 -234q18 30 70 116z" />
<glyph unicode="&#xf3;" horiz-adv-x="1342" d="M1256 558q0 256 -166 422q-164 166 -416 166q-88 0 -166 -22q-80 -22 -146 -62q-126 -76 -202 -206q-74 -128 -74 -288q0 -258 170 -426q168 -168 430 -168q86 0 164 22q76 22 142 62q120 74 192 204q72 132 72 296zM1102 556q0 -192 -118 -318q-120 -126 -302 -126 q-194 0 -318 128q-124 126 -124 324q0 190 124 316q124 128 310 128q184 0 306 -130q122 -128 122 -322zM984 1450q-18 30 -70 118q-100 -58 -396 -236q18 -30 70 -116q98 58 396 234z" />
<glyph unicode="&#xf4;" horiz-adv-x="1342" d="M1256 558q0 256 -166 422q-164 166 -416 166q-88 0 -166 -22q-80 -22 -146 -62q-126 -76 -202 -206q-74 -128 -74 -288q0 -258 170 -426q168 -168 430 -168q86 0 164 22q76 22 142 62q120 74 192 204q72 132 72 296zM1102 556q0 -192 -118 -318q-120 -126 -302 -126 q-194 0 -318 128q-124 126 -124 324q0 190 124 316q124 128 310 128q184 0 306 -130q122 -128 122 -322zM1036 1244q-72 64 -292 258h-136q-74 -66 -296 -258h186q44 38 180 150q44 -38 176 -150h182z" />
<glyph unicode="&#xf5;" horiz-adv-x="1342" d="M1256 558q0 256 -166 422q-164 166 -416 166q-88 0 -166 -22q-80 -22 -146 -62q-126 -76 -202 -206q-74 -128 -74 -288q0 -258 170 -426q168 -168 430 -168q86 0 164 22q76 22 142 62q120 74 192 204q72 132 72 296zM1102 556q0 -192 -118 -318q-120 -126 -302 -126 q-194 0 -318 128q-124 126 -124 324q0 190 124 316q124 128 310 128q184 0 306 -130q122 -128 122 -322zM970 1376q-16 24 -66 94q-32 -32 -60 -48t-58 -16q-42 0 -116 32q-72 32 -102 32q-54 0 -106 -26q-50 -28 -86 -74q24 -32 68 -94q4 2 14 12q40 34 60 44t50 10 q14 0 38 -6q22 -6 44 -16q50 -24 80 -34q32 -10 54 -10q52 0 106 30q56 30 80 70z" />
<glyph unicode="&#xf6;" horiz-adv-x="1342" d="M1256 558q0 256 -166 422q-164 166 -416 166q-88 0 -166 -22q-80 -22 -146 -62q-126 -76 -202 -206q-74 -128 -74 -288q0 -258 170 -426q168 -168 430 -168q86 0 164 22q76 22 142 62q120 74 192 204q72 132 72 296zM1102 556q0 -192 -118 -318q-120 -126 -302 -126 q-194 0 -318 128q-124 126 -124 324q0 190 124 316q124 128 310 128q184 0 306 -130q122 -128 122 -322zM598 1244v258h-152v-258h152zM900 1244v258h-152v-258h152z" />
<glyph unicode="&#xf7;" horiz-adv-x="1242" d="M1112 436v152h-982v-152h982zM750 890q0 54 -38 92t-92 38t-90 -38q-38 -38 -38 -92q0 -52 38 -90q36 -38 90 -38t92 38t38 90zM750 134q0 52 -38 90t-92 38t-90 -38q-38 -38 -38 -90q0 -54 38 -92q36 -38 90 -38t92 38t38 92z" />
<glyph unicode="&#xf8;" horiz-adv-x="1338" d="M1252 576q0 124 -42 224t-128 178q38 52 114 152q-28 22 -108 86q-30 -38 -118 -154q-68 44 -142 64t-156 20q-86 0 -164 -22q-78 -24 -146 -66q-124 -78 -200 -210t-76 -290q0 -122 38 -216q38 -96 130 -202q-34 -46 -104 -138q26 -20 108 -82q26 34 106 138 q86 -46 156 -66q68 -18 152 -18q254 0 416 170q164 168 164 432zM888 958q-136 -178 -548 -710q-54 76 -78 144q-22 68 -22 152q0 198 124 330q126 134 310 134q58 0 112 -12t102 -38zM1098 574q0 -204 -122 -332q-120 -130 -314 -130q-58 0 -106 12q-48 10 -110 38 q184 236 552 710q52 -64 76 -136t24 -162z" />
<glyph unicode="&#xf9;" horiz-adv-x="1246" d="M1116 0v1120h-152v-576q0 -228 -96 -330q-98 -102 -252 -102q-162 0 -248 96q-88 94 -88 308v604h-150v-66v-538q0 -294 130 -418t344 -124q130 0 218 48q86 48 142 152v-174h152zM778 1332q-98 58 -396 236q-16 -28 -68 -118q98 -58 394 -234q18 30 70 116z" />
<glyph unicode="&#xfa;" horiz-adv-x="1246" d="M1116 0v1120h-152v-576q0 -228 -96 -330q-98 -102 -252 -102q-162 0 -248 96q-88 94 -88 308v604h-150v-66v-538q0 -294 130 -418t344 -124q130 0 218 48q86 48 142 152v-174h152zM932 1450q-18 30 -70 118q-98 -58 -396 -236q18 -30 70 -116q100 58 396 234z" />
<glyph unicode="&#xfb;" horiz-adv-x="1246" d="M1116 0v1120h-152v-576q0 -228 -96 -330q-98 -102 -252 -102q-162 0 -248 96q-88 94 -88 308v604h-150v-66v-538q0 -294 130 -418t344 -124q130 0 218 48q86 48 142 152v-174h152zM986 1244q-74 64 -294 258h-134q-76 -66 -298 -258h186q46 38 180 150q44 -38 176 -150 h184z" />
<glyph unicode="&#xfc;" horiz-adv-x="1246" d="M1116 0v1120h-152v-576q0 -228 -96 -330q-98 -102 -252 -102q-162 0 -248 96q-88 94 -88 308v604h-150v-66v-538q0 -294 130 -418t344 -124q130 0 218 48q86 48 142 152v-174h152zM546 1244v258h-150v-258h150zM848 1244v258h-152v-258h152z" />
<glyph unicode="&#xfd;" horiz-adv-x="1098" d="M1080 1120h-162q-96 -222 -380 -892q-88 222 -354 892h-166q108 -270 434 -1084q-44 -106 -182 -430h162q162 380 648 1514zM860 1450q-18 30 -70 118q-98 -58 -394 -236q16 -30 68 -116q100 58 396 234z" />
<glyph unicode="&#xfe;" horiz-adv-x="1396" d="M1310 558q0 86 -22 166t-64 148q-76 124 -208 200q-132 74 -296 74q-142 0 -256 -56q-112 -56 -184 -162v586h-150v-288v-1620h150v586q74 -108 186 -162q112 -56 250 -56q88 0 168 22t148 64q126 76 202 206q76 132 76 292zM1158 558q0 -190 -128 -318 q-126 -128 -314 -128q-192 0 -318 130q-128 130 -128 324q0 186 130 314q128 128 314 128q190 0 316 -128q128 -130 128 -322z" />
<glyph unicode="&#xff;" horiz-adv-x="1098" d="M1080 1120h-162q-96 -222 -380 -892q-88 222 -354 892h-166q108 -270 434 -1084q-44 -106 -182 -430h162q162 380 648 1514zM476 1244v258h-152v-258h152zM776 1244v258h-152v-258h152z" />
<glyph unicode="&#x152;" horiz-adv-x="2446" d="M2330 0v138h-652v558h630v138h-630v542h652v138h-804v-302q-96 158 -262 244q-168 84 -380 84q-118 0 -226 -30q-108 -28 -198 -84q-170 -100 -270 -274t-100 -392q0 -118 30 -226q32 -106 88 -196q106 -168 290 -266q182 -98 414 -98q206 0 362 86q156 84 252 250v-310 h804zM1528 762q0 -184 -78 -328q-80 -146 -212 -228q-74 -44 -158 -70q-86 -24 -180 -24q-184 0 -332 82q-146 82 -230 222q-46 76 -70 164q-24 90 -24 188q0 94 24 178q24 86 68 158q84 134 226 216q144 80 322 80q182 0 326 -78q144 -80 226 -216q44 -72 68 -160 q24 -86 24 -184z" />
<glyph unicode="&#x153;" horiz-adv-x="2328" d="M2248 586q0 82 -22 158t-62 140q-74 120 -204 192q-128 70 -286 70q-168 0 -292 -74q-126 -74 -212 -224q-92 152 -218 226q-124 72 -288 72q-86 0 -164 -22t-144 -64q-122 -76 -196 -206q-74 -132 -74 -292q0 -88 22 -166q24 -80 66 -148q76 -124 208 -200 q132 -74 296 -74q162 0 280 74q120 74 212 234q70 -144 210 -226t316 -82q200 0 344 120t184 272h-152q-60 -126 -156 -190t-228 -64q-166 0 -300 112q-132 110 -142 284h998q2 26 4 46v32zM2104 646h-858q40 168 154 264q112 98 270 98q166 0 286 -100t148 -262zM1098 560 q0 -190 -122 -318q-120 -130 -298 -130q-186 0 -312 130q-126 128 -126 318q0 192 122 320t306 128t306 -128q124 -128 124 -320z" />
<glyph unicode="&#x178;" horiz-adv-x="1212" d="M1208 1514h-166l-440 -848q-108 212 -430 848h-168q132 -252 524 -1008v-506h152v506zM530 1616v258h-152v-258h152zM832 1616v258h-152v-258h152z" />
<glyph unicode="&#x2c6;" horiz-adv-x="1028" d="M876 1244q-72 64 -292 258h-136q-74 -66 -296 -258h186q44 38 180 150q44 -38 176 -150h182z" />
<glyph unicode="&#x2dc;" horiz-adv-x="900" d="M748 1376q-18 24 -68 94q-30 -32 -60 -48q-28 -16 -56 -16q-44 0 -116 32q-74 32 -104 32q-54 0 -104 -26q-52 -28 -86 -74q22 -32 68 -94q2 2 14 12q40 34 60 44q18 10 48 10q16 0 38 -6t44 -16q50 -24 82 -34q30 -10 54 -10q50 0 106 30q54 30 80 70z" />
<glyph unicode="&#x2000;" horiz-adv-x="989" />
<glyph unicode="&#x2001;" horiz-adv-x="1978" />
<glyph unicode="&#x2002;" horiz-adv-x="989" />
<glyph unicode="&#x2003;" horiz-adv-x="1978" />
<glyph unicode="&#x2004;" horiz-adv-x="659" />
<glyph unicode="&#x2005;" horiz-adv-x="494" />
<glyph unicode="&#x2006;" horiz-adv-x="329" />
<glyph unicode="&#x2007;" horiz-adv-x="329" />
<glyph unicode="&#x2008;" horiz-adv-x="247" />
<glyph unicode="&#x2009;" horiz-adv-x="395" />
<glyph unicode="&#x200a;" horiz-adv-x="109" />
<glyph unicode="&#x2010;" horiz-adv-x="680" d="M618 478v128h-554v-32v-96h554z" />
<glyph unicode="&#x2011;" horiz-adv-x="680" d="M618 478v128h-554v-32v-96h554z" />
<glyph unicode="&#x2012;" horiz-adv-x="680" d="M618 478v128h-554v-32v-96h554z" />
<glyph unicode="&#x2013;" horiz-adv-x="1024" d="M1024 478v128h-1024v-38v-90h1024z" />
<glyph unicode="&#x2014;" horiz-adv-x="2048" d="M2048 478v128h-2048v-38v-90h2048z" />
<glyph unicode="&#x2018;" horiz-adv-x="718" d="M532 1120q-44 98 -180 394h-152q46 -98 180 -394h152z" />
<glyph unicode="&#x2019;" horiz-adv-x="718" d="M518 1514h-152q-44 -98 -180 -394h152q44 98 180 394z" />
<glyph unicode="&#x201a;" horiz-adv-x="724" d="M514 258h-152q-44 -98 -180 -396h152q44 100 180 396z" />
<glyph unicode="&#x201c;" horiz-adv-x="1028" d="M832 1120q-46 98 -180 394h-152q44 -98 180 -394h152zM528 1120q-44 98 -180 394h-152q46 -98 180 -394h152z" />
<glyph unicode="&#x201d;" horiz-adv-x="992" d="M510 1514h-152q-44 -98 -180 -394h152q44 98 180 394zM804 1514h-150q-46 -98 -180 -394h150q46 98 180 394z" />
<glyph unicode="&#x201e;" horiz-adv-x="1028" d="M514 258h-152q-44 -98 -180 -396h152q44 100 180 396zM816 258h-152q-46 -98 -180 -396h150q46 100 182 396z" />
<glyph unicode="&#x2022;" horiz-adv-x="1242" d="M1000 622q0 158 -110 268q-112 110 -270 110q-156 0 -268 -112q-110 -110 -110 -268q0 -154 110 -266t264 -112q162 0 272 110q112 110 112 270z" />
<glyph unicode="&#x2026;" horiz-adv-x="2048" d="M418 0v258h-152v-258h152zM1100 0v258h-152v-258h152zM1782 0v258h-152v-258h152z" />
<glyph unicode="&#x202f;" horiz-adv-x="395" />
<glyph unicode="&#x2039;" horiz-adv-x="514" d="M432 270q-48 86 -190 344q48 86 190 342q-30 16 -120 66q-58 -102 -230 -408q58 -102 230 -412q30 18 120 68z" />
<glyph unicode="&#x203a;" horiz-adv-x="514" d="M432 614q-58 102 -230 408q-30 -16 -120 -66q48 -86 190 -342q-48 -86 -190 -344q30 -16 120 -68q58 104 230 412z" />
<glyph unicode="&#x205f;" horiz-adv-x="494" />
<glyph unicode="&#x20ac;" d="M1174 1286q-120 158 -222 206q-100 48 -230 48q-230 0 -378 -130q-146 -128 -206 -470h-154q-12 -30 -50 -120h192q0 -26 -2 -46t-2 -32t2 -26v-38h-138q-12 -30 -50 -120h198q52 -304 196 -444q146 -140 384 -140q124 0 212 34q88 36 172 118v166q-118 -108 -190 -146 q-72 -40 -196 -40q-176 0 -286 116t-140 336h562q12 30 50 120h-622q-2 22 -2 36v28q0 10 2 30q0 22 2 48h680q14 30 52 120h-720q54 262 156 364q102 100 278 100q120 0 202 -56q84 -56 184 -204q22 48 64 142z" />
<glyph unicode="&#x2122;" horiz-adv-x="2048" d="M712 1514h-582v-108h228v-754h128v754h226v108zM1918 652v862h-176q-88 -174 -354 -692q-88 172 -354 692h-178v-862h130v696q86 -174 350 -696h102q88 174 354 696v-696h126z" />
<glyph unicode="&#x25fc;" horiz-adv-x="1120" d="M0 1120h1120v-1120h-1120v1120z" />
<glyph unicode="&#xfb01;" horiz-adv-x="998" d="M636 984v136h-278q-2 140 62 198q62 58 216 58v138q-216 0 -324 -100q-108 -98 -106 -294h-174v-136h174v-984h152v984h278zM868 0v1120h-152v-1120h152zM868 1244v258h-152v-258h152z" />
<glyph unicode="&#xfb02;" horiz-adv-x="994" d="M636 984v136h-278q-2 140 62 198q62 58 216 58v138q-216 0 -324 -100q-108 -98 -106 -294h-174v-136h174v-984h152v984h278zM864 0v1514h-152v-1514h152z" />
<glyph unicode="&#xfb03;" horiz-adv-x="1500" d="M1142 984v136h-278q-2 140 62 198q62 58 216 58v138q-216 0 -324 -100q-108 -98 -106 -294h-354q-2 140 62 198q62 58 216 58v138q-216 0 -324 -100q-108 -98 -106 -294h-174v-136h174v-984h152v984h354v-984h152v984h278zM1370 0v1120h-152v-1120h152zM1370 1244v258 h-152v-258h152z" />
<glyph unicode="&#xfb04;" horiz-adv-x="1500" d="M1142 984v136h-278q-2 140 62 198q62 58 216 58v138q-216 0 -324 -100q-108 -98 -106 -294h-354q-2 140 62 198q62 58 216 58v138q-216 0 -324 -100q-108 -98 -106 -294h-174v-136h174v-984h152v984h354v-984h152v984h278zM1370 0v1514h-152v-1514h152z" />
</font>
</defs>
</svg>
