<?xml version="1.0" encoding="utf-8"?>
<!-- Generator: Adobe Illustrator 21.1.0, SVG Export Plug-In . SVG Version: 6.00 Build 0)  -->
<svg version="1.1" id="Layer_1" xmlns="http://www.w3.org/2000/svg" xmlns:xlink="http://www.w3.org/1999/xlink" x="0px" y="0px"
	 viewBox="0 0 70 70" style="enable-background:new 0 0 70 70;" xml:space="preserve">
<path d="M63.2,20.3c0.1-0.7,0.1-1.4,0.1-2.1c0-8.5-6.9-15.4-15.4-15.4c-3.3,0-6.4,1-9,2.9l-0.1,0.1c-1.5-0.3-3-0.5-4.5-0.5
	c-6.9,0-13.3,3.6-17,9.4c-0.5-0.1-1-0.2-1.5-0.2c-3.9,0-7.1,3.2-7.2,7.1c-4.2,2.2-6.9,6.6-6.9,11.3c0,7,5.7,12.7,12.7,12.7h9.8v22.2
	c0,0.6,0.4,1,1,1s1-0.4,1-1l0-5l17.1,0l0.1,5c0,0.6,0.4,1,1,1s1-0.4,1-1V45.6h7.8c8.1,0,14.7-6.6,14.7-14.7
	C67.7,26.7,65.9,23,63.2,20.3z M47.9,4.8c7.4,0,13.4,6,13.4,13.4c0,0.2,0,0.4,0,0.6c-2.3-1.6-5.2-2.5-8.2-2.5c-0.3,0-0.6,0-0.9,0
	c-2.3-4.5-6.2-7.9-10.9-9.7C43.3,5.4,45.5,4.8,47.9,4.8z M43.3,43.6H26.1v-6.4h17.2C43.3,37.2,43.3,43.6,43.3,43.6z M43.3,60.3H26.1
	v-6.4h17.2C43.3,53.9,43.3,60.3,43.3,60.3z M43.3,51.9H26.1v-6.3h17.2C43.3,45.6,43.3,51.9,43.3,51.9z M53,43.6h-7.8V30.9
	c0-0.6-0.4-1-1-1s-1,0.4-1,1v4.3H26.1v-4.3c0-0.6-0.4-1-1-1s-1,0.4-1,1v12.7h-9.8c-5.8,0-10.6-4.8-10.6-10.7c0-4.2,2.5-8,6.3-9.8
	c0.4-0.2,0.6-0.6,0.6-1c0-0.1,0-0.2,0-0.3c0-0.1,0-0.1,0-0.2c0-2.9,2.3-5.2,5.2-5.2c0.5,0,1.1,0.1,1.7,0.3c0.5,0.2,1,0,1.2-0.4
	c3.2-5.6,9.2-9.1,15.7-9.1c7,0,13.4,4.1,16.4,10.4c0.2,0.4,0.6,0.6,1,0.6c0.5-0.1,1-0.1,1.4-0.1c7,0,12.7,5.7,12.7,12.7
	C65.7,37.9,60,43.6,53,43.6z"/>
</svg>
